CalSansText-Regular.ufo
<glyph name="period" format="2">
  <advance width="235.0"/>
  <unicode hex="002E"/>
  <outline>
    <contour>
      <point x="118.0" y="-13.0" type="curve" smooth="yes"/>
      <point x="155.0" y="-13.0"/>
      <point x="181.5" y="15.75"/>
      <point x="181.5" y="50.25" type="curve" smooth="yes"/>
      <point x="181.5" y="83.75"/>
      <point x="155.0" y="111.75"/>
      <point x="118.0" y="111.75" type="curve" smooth="yes"/>
      <point x="80.25" y="111.75"/>
      <point x="53.5" y="83.75"/>
      <point x="53.5" y="50.25" type="curve" smooth="yes"/>
      <point x="53.5" y="15.75"/>
      <point x="80.25" y="-13.0"/>
    </contour>
  </outline>
</glyph>
<glyph name="E" format="2">
  <advance width="552.75"/>
  <unicode hex="0045"/>
  <anchor x="302.5" y="0.0" name="bottom"/>
  <anchor x="391.5" y="0.0" name="ogonek"/>
  <anchor x="292.5" y="700.0" name="top"/>
  <outline>
    <contour>
      <point x="81.5" y="0.0" type="line"/>
      <point x="482.25" y="0.0" type="line"/>
      <point x="482.25" y="90.75" type="line"/>
      <point x="178.0" y="90.75" type="line"/>
      <point x="178.0" y="310.25" type="line"/>
      <point x="475.25" y="310.25" type="line"/>
      <point x="475.25" y="401.0" type="line"/>
      <point x="178.0" y="401.0" type="line"/>
      <point x="178.0" y="609.25" type="line"/>
      <point x="480.25" y="609.25" type="line"/>
      <point x="480.25" y="700.0" type="line"/>
      <point x="81.5" y="700.0" type="line"/>
    </contour>
  </outline>
</glyph>
<glyph name="Z" format="2">
  <advance width="641.25"/>
  <unicode hex="005A"/>
  <anchor x="321.0" y="0.0" name="bottom"/>
  <anchor x="321.0" y="350.0" name="center"/>
  <anchor x="321.0" y="700.0" name="top"/>
  <outline>
    <contour>
      <point x="41.5" y="0.0" type="line"/>
      <point x="595.75" y="0.0" type="line"/>
      <point x="595.75" y="90.25" type="line"/>
      <point x="193.0" y="90.25" type="line"/>
      <point x="193.0" y="93.0" type="line"/>
      <point x="206.25" y="103.25"/>
      <point x="218.75" y="118.25"/>
      <point x="241.5" y="151.0" type="curve" smooth="yes"/>
      <point x="595.75" y="685.0" type="line"/>
      <point x="595.75" y="700.0" type="line"/>
      <point x="60.5" y="700.0" type="line"/>
      <point x="60.5" y="609.25" type="line"/>
      <point x="438.75" y="609.25" type="line"/>
      <point x="438.75" y="606.5" type="line"/>
      <point x="426.0" y="597.0"/>
      <point x="414.0" y="582.5"/>
      <point x="392.75" y="550.75" type="curve" smooth="yes"/>
      <point x="41.5" y="15.0" type="line"/>
    </contour>
  </outline>
</glyph>
<glyph name="u" format="2">
  <advance width="561.5"/>
  <unicode hex="0075"/>
  <anchor x="270.5" y="0.0" name="bottom"/>
  <anchor x="398.75" y="0.0" name="ogonek"/>
  <anchor x="277.75" y="493.75" name="top"/>
  <anchor x="485.0" y="493.75" name="topright"/>
  <outline>
    <contour>
      <point x="246.75" y="-12.75" type="curve" smooth="yes"/>
      <point x="321.75" y="-12.75"/>
      <point x="368.25" y="27.25"/>
      <point x="394.25" y="71.75" type="curve"/>
      <point x="400.25" y="71.75" type="line"/>
      <point x="400.25" y="0.0" type="line"/>
      <point x="490.0" y="0.0" type="line"/>
      <point x="490.0" y="493.75" type="line"/>
      <point x="396.25" y="493.75" type="line"/>
      <point x="396.25" y="199.25" type="line" smooth="yes"/>
      <point x="396.25" y="121.0"/>
      <point x="344.75" y="72.25"/>
      <point x="269.25" y="72.25" type="curve" smooth="yes"/>
      <point x="204.5" y="72.25"/>
      <point x="160.25" y="121.0"/>
      <point x="160.25" y="199.25" type="curve" smooth="yes"/>
      <point x="160.25" y="493.75" type="line"/>
      <point x="66.5" y="493.75" type="line"/>
      <point x="66.5" y="177.5" type="line" smooth="yes"/>
      <point x="66.5" y="62.0"/>
      <point x="145.75" y="-12.75"/>
    </contour>
  </outline>
</glyph>
<glyph name="currency" format="2">
  <advance width="591.0"/>
  <unicode hex="00A4"/>
  <anchor x="166.655071" y="461.573967" name="_TopCurrency"/>
  <outline>
    <contour>
      <point x="293.5" y="107.0" type="curve" smooth="yes"/>
      <point x="418.0" y="107.0"/>
      <point x="508.0" y="199.0"/>
      <point x="508.0" y="322.0" type="curve" smooth="yes"/>
      <point x="508.0" y="445.0"/>
      <point x="418.0" y="538.0"/>
      <point x="293.5" y="538.0" type="curve" smooth="yes"/>
      <point x="169.0" y="538.0"/>
      <point x="79.0" y="445.0"/>
      <point x="79.0" y="322.0" type="curve" smooth="yes"/>
      <point x="79.0" y="199.0"/>
      <point x="169.0" y="107.0"/>
    </contour>
    <contour>
      <point x="293.5" y="185.75" type="curve" smooth="yes"/>
      <point x="220.0" y="185.75"/>
      <point x="165.0" y="238.75"/>
      <point x="165.0" y="322.0" type="curve" smooth="yes"/>
      <point x="165.0" y="405.25"/>
      <point x="220.0" y="459.25"/>
      <point x="293.5" y="459.25" type="curve" smooth="yes"/>
      <point x="367.0" y="459.25"/>
      <point x="422.0" y="405.25"/>
      <point x="422.0" y="322.0" type="curve" smooth="yes"/>
      <point x="422.0" y="238.75"/>
      <point x="367.0" y="185.75"/>
    </contour>
    <component base="verticalTopCurrencycomb" xScale="0.7313537016191705" xyScale="0.6819983600624985" yxScale="-0.6819983600624985" yScale="0.7313537016191705" xOffset="612.0" yOffset="-16.0"/>
    <component base="verticalTopCurrencycomb" xScale="0.7313537016191705" xyScale="-0.6819983600624985" yxScale="0.6819983600624985" yScale="0.7313537016191705" xOffset="-22.0" yOffset="-16.0"/>
    <component base="verticalTopCurrencycomb" xScale="-0.7313537016191705" xyScale="-0.6819983600624986" yxScale="0.6819983600624986" yScale="-0.7313537016191705" xOffset="-21.0" yOffset="663.0"/>
    <component base="verticalTopCurrencycomb" xScale="-0.7313537016191705" xyScale="0.6819983600624986" yxScale="-0.6819983600624986" yScale="-0.7313537016191705" xOffset="613.0" yOffset="663.0"/>
  </outline>
</glyph>
<glyph name="micro" format="2">
  <advance width="566.5"/>
  <unicode hex="00B5"/>
  <anchor x="273.25" y="0.0" name="bottom"/>
  <anchor x="403.75" y="0.0" name="ogonek"/>
  <anchor x="283.25" y="493.75" name="top"/>
  <anchor x="495.0" y="493.75" name="topright"/>
  <outline>
    <contour>
      <point x="169.25" y="20.25" type="line"/>
      <point x="193.25" y="-1.75"/>
      <point x="223.5" y="-12.75"/>
      <point x="259.0" y="-12.75" type="curve" smooth="yes"/>
      <point x="328.0" y="-12.75"/>
      <point x="373.25" y="27.25"/>
      <point x="399.25" y="71.75" type="curve"/>
      <point x="405.25" y="71.75" type="line"/>
      <point x="405.25" y="0.0" type="line"/>
      <point x="495.0" y="0.0" type="line"/>
      <point x="495.0" y="493.75" type="line"/>
      <point x="401.25" y="493.75" type="line"/>
      <point x="401.25" y="199.25" type="line" smooth="yes"/>
      <point x="401.25" y="121.0"/>
      <point x="349.75" y="72.25"/>
      <point x="274.25" y="72.25" type="curve" smooth="yes"/>
      <point x="209.5" y="72.25"/>
      <point x="165.25" y="121.0"/>
      <point x="165.25" y="199.25" type="curve" smooth="yes"/>
      <point x="165.25" y="493.75" type="line"/>
      <point x="71.5" y="493.75" type="line"/>
      <point x="71.5" y="-220.0" type="line"/>
      <point x="165.5" y="-220.0" type="line"/>
      <point x="165.5" y="20.25" type="line"/>
    </contour>
  </outline>
</glyph>
<glyph name="ae" format="2">
  <advance width="989.25"/>
  <unicode hex="00E6"/>
  <anchor x="506.25" y="0.0" name="bottom"/>
  <anchor x="457.25" y="0.0" name="ogonek"/>
  <anchor x="506.25" y="493.75" name="top"/>
  <outline>
    <contour>
      <point x="716.25" y="-13.0" type="curve" smooth="yes"/>
      <point x="805.75" y="-13.0"/>
      <point x="880.25" y="20.75"/>
      <point x="925.5" y="78.75" type="curve"/>
      <point x="860.5" y="138.0" type="line"/>
      <point x="827.75" y="93.0"/>
      <point x="778.75" y="72.5"/>
      <point x="715.25" y="72.5" type="curve" smooth="yes"/>
      <point x="643.25" y="72.5"/>
      <point x="554.0" y="134.25"/>
      <point x="550.75" y="234.5" type="curve"/>
      <point x="550.5" y="248.75" type="line"/>
      <point x="548.75" y="366.75"/>
      <point x="643.25" y="424.0"/>
      <point x="709.25" y="424.0" type="curve" smooth="yes"/>
      <point x="808.75" y="424.0"/>
      <point x="862.0" y="353.25"/>
      <point x="858.25" y="250.0" type="curve"/>
      <point x="889.25" y="292.0" type="line"/>
      <point x="506.25" y="292.0" type="line"/>
      <point x="506.25" y="214.5" type="line"/>
      <point x="949.75" y="214.5" type="line"/>
      <point x="952.0" y="223.5"/>
      <point x="952.25" y="238.25"/>
      <point x="952.25" y="250.0" type="curve" smooth="yes"/>
      <point x="952.25" y="401.75"/>
      <point x="861.0" y="506.75"/>
      <point x="720.5" y="506.75" type="curve" smooth="yes"/>
      <point x="594.75" y="506.75"/>
      <point x="518.75" y="398.75"/>
      <point x="518.75" y="246.75" type="curve" smooth="yes"/>
      <point x="518.75" y="96.75"/>
      <point x="592.25" y="-13.0"/>
    </contour>
    <contour>
      <point x="474.75" y="406.5" type="line"/>
      <point x="474.75" y="89.0" type="line"/>
      <point x="564.25" y="89.0" type="line"/>
      <point x="530.75" y="253.75" type="line"/>
      <point x="564.25" y="406.5" type="line"/>
    </contour>
    <component base="a"/>
  </outline>
</glyph>
<glyph name="idotless" format="2">
  <advance width="236.75"/>
  <unicode hex="0131"/>
  <anchor x="118.5" y="0.0" name="bottom"/>
  <anchor x="84.75" y="0.0" name="ogonek"/>
  <anchor x="118.5" y="493.75" name="top"/>
  <outline>
    <contour>
      <point x="71.5" y="0.0" type="line"/>
      <point x="165.25" y="0.0" type="line"/>
      <point x="165.25" y="493.75" type="line"/>
      <point x="71.5" y="493.75" type="line"/>
    </contour>
  </outline>
</glyph>
<glyph name="strokeshortcomb" format="2">
  <unicode hex="0335"/>
  <anchor x="0.0" y="351.0" name="_bar"/>
  <outline>
    <contour>
      <point x="-157.75" y="306.0" type="line"/>
      <point x="158.0" y="306.0" type="line"/>
      <point x="158.0" y="390.0" type="line"/>
      <point x="-157.75" y="390.0" type="line"/>
    </contour>
  </outline>
</glyph>
<glyph name="daggerdbl" format="2">
  <advance width="385.0"/>
  <unicode hex="2021"/>
  <outline>
    <contour>
      <point x="152.5" y="301.0" type="line"/>
      <point x="232.5" y="301.0" type="line"/>
      <point x="232.5" y="753.0" type="line"/>
      <point x="152.5" y="753.0" type="line"/>
    </contour>
    <contour>
      <point x="50.0" y="401.0" type="line"/>
      <point x="335.0" y="401.0" type="line"/>
      <point x="335.0" y="476.0" type="line"/>
      <point x="50.0" y="476.0" type="line"/>
    </contour>
    <contour>
      <point x="50.0" y="578.0" type="line"/>
      <point x="335.0" y="578.0" type="line"/>
      <point x="335.0" y="653.0" type="line"/>
      <point x="50.0" y="653.0" type="line"/>
    </contour>
  </outline>
</glyph>
<glyph name="sheqel" format="2">
  <advance width="587.25"/>
  <unicode hex="20AA"/>
  <outline>
    <contour>
      <point x="237.75" y="30.0" type="line"/>
      <point x="366.75" y="30.0" type="line" smooth="yes"/>
      <point x="511.75" y="30.0"/>
      <point x="546.25" y="103.0"/>
      <point x="546.25" y="230.0" type="curve" smooth="yes"/>
      <point x="546.25" y="462.75" type="line"/>
      <point x="472.5" y="462.75" type="line"/>
      <point x="472.5" y="234.25" type="line" smooth="yes"/>
      <point x="472.5" y="159.75"/>
      <point x="442.0" y="119.5"/>
      <point x="359.25" y="119.5" type="curve" smooth="yes"/>
      <point x="237.75" y="119.5" type="line"/>
    </contour>
    <contour>
      <point x="42.0" y="30.0" type="line"/>
      <point x="115.75" y="30.0" type="line"/>
      <point x="115.75" y="463.75" type="line"/>
      <point x="42.0" y="463.75" type="line"/>
    </contour>
    <contour>
      <point x="186.75" y="30.0" type="line"/>
      <point x="260.5" y="30.0" type="line"/>
      <point x="260.5" y="313.25" type="line"/>
      <point x="186.75" y="313.25" type="line"/>
    </contour>
    <contour>
      <point x="327.0" y="179.5" type="line"/>
      <point x="401.5" y="179.5" type="line"/>
      <point x="401.5" y="263.75" type="line" smooth="yes"/>
      <point x="401.5" y="390.75"/>
      <point x="376.75" y="463.75"/>
      <point x="231.75" y="463.75" type="curve" smooth="yes"/>
      <point x="93.0" y="463.75" type="line"/>
      <point x="93.0" y="374.25" type="line"/>
      <point x="225.0" y="374.25" type="line" smooth="yes"/>
      <point x="304.25" y="374.25"/>
      <point x="327.0" y="335.5"/>
      <point x="327.0" y="259.75" type="curve" smooth="yes"/>
    </contour>
  </outline>
</glyph>
<glyph name="euro" format="2">
  <advance width="677.75"/>
  <unicode hex="20AC"/>
  <outline>
    <contour>
      <point x="415.25" y="19.5" type="curve" smooth="yes"/>
      <point x="526.5" y="19.5"/>
      <point x="603.5" y="64.0"/>
      <point x="656.5" y="128.0" type="curve"/>
      <point x="586.5" y="184.25" type="line"/>
      <point x="531.75" y="122.0"/>
      <point x="488.0" y="106.0"/>
      <point x="419.75" y="106.0" type="curve" smooth="yes"/>
      <point x="316.25" y="106.0"/>
      <point x="229.0" y="158.75"/>
      <point x="195.5" y="285.75" type="curve" smooth="yes"/>
      <point x="190.25" y="305.75" type="line"/>
      <point x="182.75" y="343.75"/>
      <point x="181.75" y="359.0"/>
      <point x="189.25" y="397.0" type="curve"/>
      <point x="195.5" y="418.0" type="line"/>
      <point x="235.25" y="549.25"/>
      <point x="316.25" y="594.0"/>
      <point x="416.0" y="594.0" type="curve" smooth="yes"/>
      <point x="479.0" y="594.0"/>
      <point x="539.75" y="570.75"/>
      <point x="581.75" y="526.75" type="curve"/>
      <point x="637.75" y="592.0" type="line"/>
      <point x="584.5" y="648.0"/>
      <point x="517.25" y="680.5"/>
      <point x="415.25" y="680.5" type="curve" smooth="yes"/>
      <point x="222.25" y="680.5"/>
      <point x="85.0" y="532.5"/>
      <point x="85.0" y="349.0" type="curve" smooth="yes"/>
      <point x="85.0" y="166.5"/>
      <point x="230.25" y="19.5"/>
    </contour>
    <contour>
      <point x="-9.0" y="241.5" type="line"/>
      <point x="396.5" y="241.5" type="line"/>
      <point x="446.75" y="316.75" type="line"/>
      <point x="42.25" y="316.75" type="line"/>
    </contour>
    <contour>
      <point x="-12.25" y="383.25" type="line"/>
      <point x="489.25" y="383.25" type="line"/>
      <point x="540.5" y="458.5" type="line"/>
      <point x="40.0" y="458.5" type="line"/>
    </contour>
  </outline>
</glyph>
<glyph name="tugrik" format="2">
  <advance width="600.75"/>
  <unicode hex="20AE"/>
  <outline>
    <contour>
      <point x="252.5" y="30.0" type="line"/>
      <point x="349.0" y="30.0" type="line"/>
      <point x="349.0" y="624.5" type="line"/>
      <point x="252.5" y="624.5" type="line"/>
    </contour>
    <contour>
      <point x="46.5" y="579.25" type="line"/>
      <point x="554.25" y="579.25" type="line"/>
      <point x="554.25" y="670.0" type="line"/>
      <point x="46.5" y="670.0" type="line"/>
    </contour>
    <contour>
      <point x="69.0" y="171.5" type="line"/>
      <point x="531.75" y="267.75" type="line"/>
      <point x="531.75" y="348.0" type="line"/>
      <point x="69.0" y="251.75" type="line"/>
    </contour>
    <contour>
      <point x="69.0" y="307.75" type="line"/>
      <point x="531.75" y="404.0" type="line"/>
      <point x="531.75" y="482.75" type="line"/>
      <point x="69.0" y="387.75" type="line"/>
    </contour>
  </outline>
</glyph>
<glyph name="peso" format="2">
  <advance width="606.25"/>
  <unicode hex="20B1"/>
  <outline>
    <contour>
      <point x="102.5" y="30.0" type="line"/>
      <point x="199.0" y="30.0" type="line"/>
      <point x="199.0" y="230.25" type="line"/>
      <point x="284.5" y="230.25" type="line" smooth="yes"/>
      <point x="418.75" y="230.25"/>
      <point x="523.75" y="306.25"/>
      <point x="523.75" y="451.0" type="curve" smooth="yes"/>
      <point x="523.75" y="594.75"/>
      <point x="418.0" y="670.0"/>
      <point x="284.5" y="670.0" type="curve" smooth="yes"/>
      <point x="102.5" y="670.0" type="line"/>
    </contour>
    <contour>
      <point x="199.0" y="321.0" type="line"/>
      <point x="199.0" y="579.25" type="line"/>
      <point x="281.5" y="579.25" type="line" smooth="yes"/>
      <point x="368.0" y="579.25"/>
      <point x="424.5" y="541.25"/>
      <point x="424.5" y="450.75" type="curve" smooth="yes"/>
      <point x="424.5" y="358.5"/>
      <point x="368.0" y="321.0"/>
      <point x="281.5" y="321.0" type="curve" smooth="yes"/>
    </contour>
    <contour>
      <point x="20.0" y="365.5" type="line"/>
      <point x="598.75" y="365.5" type="line"/>
      <point x="598.75" y="427.5" type="line"/>
      <point x="20.0" y="427.5" type="line"/>
    </contour>
    <contour>
      <point x="20.0" y="472.75" type="line"/>
      <point x="598.75" y="472.75" type="line"/>
      <point x="598.75" y="534.75" type="line"/>
      <point x="20.0" y="534.75" type="line"/>
    </contour>
  </outline>
</glyph>
<glyph name="lessequal" format="2">
  <advance width="596.0"/>
  <unicode hex="2264"/>
  <outline>
    <contour>
      <point x="531.0" y="220.0" type="line"/>
      <point x="530.75" y="312.75" type="line"/>
      <point x="243.5" y="427.5" type="line"/>
      <point x="243.5" y="431.0" type="line"/>
      <point x="530.75" y="547.25" type="line"/>
      <point x="531.0" y="640.0" type="line"/>
      <point x="52.0" y="430.0" type="line"/>
    </contour>
    <contour>
      <point x="79.0" y="95.25" type="line"/>
      <point x="531.0" y="95.25" type="line"/>
      <point x="531.0" y="176.75" type="line"/>
      <point x="79.0" y="176.75" type="line"/>
    </contour>
  </outline>
</glyph>
<glyph name="whiteCircle" format="2">
  <advance width="786.0"/>
  <unicode hex="25CB"/>
  <outline>
    <contour>
      <point x="394.0" y="-13.0" type="curve" smooth="yes"/>
      <point x="593.0" y="-13.0"/>
      <point x="756.0" y="149.0"/>
      <point x="756.0" y="350.0" type="curve" smooth="yes"/>
      <point x="756.0" y="549.0"/>
      <point x="593.0" y="713.0"/>
      <point x="394.0" y="713.0" type="curve" smooth="yes"/>
      <point x="194.0" y="713.0"/>
      <point x="30.0" y="549.0"/>
      <point x="30.0" y="350.0" type="curve" smooth="yes"/>
      <point x="30.0" y="149.0"/>
      <point x="194.0" y="-13.0"/>
    </contour>
    <contour>
      <point x="394.0" y="45.75" type="curve" smooth="yes"/>
      <point x="228.25" y="45.75"/>
      <point x="93.75" y="185.25"/>
      <point x="93.75" y="350.0" type="curve" smooth="yes"/>
      <point x="93.75" y="510.75"/>
      <point x="225.25" y="653.75"/>
      <point x="394.0" y="653.75" type="curve" smooth="yes"/>
      <point x="565.5" y="653.75"/>
      <point x="692.25" y="507.75"/>
      <point x="692.25" y="350.0" type="curve" smooth="yes"/>
      <point x="692.25" y="182.25"/>
      <point x="555.75" y="45.75"/>
    </contour>
  </outline>
</glyph>
<glyph name="whiteBullet" format="2">
  <advance width="316.5"/>
  <unicode hex="25E6"/>
  <outline>
    <contour>
      <point x="158.25" y="265.75" type="curve" smooth="yes"/>
      <point x="216.75" y="265.75"/>
      <point x="255.25" y="309.5"/>
      <point x="255.25" y="360.75" type="curve" smooth="yes"/>
      <point x="255.25" y="413.25"/>
      <point x="216.75" y="456.5"/>
      <point x="158.25" y="456.5" type="curve" smooth="yes"/>
      <point x="99.75" y="456.5"/>
      <point x="61.25" y="412.75"/>
      <point x="61.25" y="361.5" type="curve" smooth="yes"/>
      <point x="61.25" y="309.0"/>
      <point x="99.75" y="265.75"/>
    </contour>
    <contour>
      <point x="158.25" y="314.5" type="curve" smooth="yes"/>
      <point x="132.25" y="314.5"/>
      <point x="111.5" y="334.5"/>
      <point x="111.5" y="361.5" type="curve" smooth="yes"/>
      <point x="111.5" y="385.25"/>
      <point x="131.5" y="407.75"/>
      <point x="158.25" y="407.75" type="curve" smooth="yes"/>
      <point x="184.25" y="407.75"/>
      <point x="205.0" y="387.75"/>
      <point x="205.0" y="360.75" type="curve" smooth="yes"/>
      <point x="205.0" y="337.0"/>
      <point x="185.0" y="314.5"/>
    </contour>
  </outline>
</glyph>
<glyph name="cedi.tf" format="2">
  <advance width="596.0"/>
  <outline>
    <contour>
      <point x="338.25" y="19.5" type="curve" smooth="yes"/>
      <point x="444.25" y="19.5"/>
      <point x="531.5" y="63.25"/>
      <point x="589.75" y="134.0" type="curve"/>
      <point x="519.0" y="193.25" type="line"/>
      <point x="471.0" y="136.5"/>
      <point x="413.5" y="109.75"/>
      <point x="341.0" y="109.75" type="curve" smooth="yes"/>
      <point x="225.5" y="109.75"/>
      <point x="112.0" y="191.75"/>
      <point x="112.0" y="349.0" type="curve" smooth="yes"/>
      <point x="112.0" y="505.5"/>
      <point x="218.0" y="590.25"/>
      <point x="338.0" y="590.25" type="curve" smooth="yes"/>
      <point x="403.25" y="590.25"/>
      <point x="465.5" y="568.75"/>
      <point x="514.25" y="507.25" type="curve"/>
      <point x="585.0" y="570.0" type="line"/>
      <point x="521.25" y="645.75"/>
      <point x="433.75" y="680.5"/>
      <point x="338.25" y="680.5" type="curve" smooth="yes"/>
      <point x="163.75" y="680.5"/>
      <point x="11.0" y="549.75"/>
      <point x="11.0" y="349.0" type="curve" smooth="yes"/>
      <point x="11.0" y="148.5"/>
      <point x="167.25" y="19.5"/>
    </contour>
    <contour>
      <point x="288.5" y="-69.0" type="line"/>
      <point x="365.0" y="-69.0" type="line"/>
      <point x="365.0" y="775.0" type="line"/>
      <point x="288.5" y="775.0" type="line"/>
    </contour>
  </outline>
</glyph>
<glyph name="f_f_i.ss11" format="2">
  <advance width="884.75"/>
  <anchor x="779.5" y="0.0" name="bottom_1"/>
  <anchor x="745.75" y="0.0" name="ogonek_1"/>
  <anchor x="779.5" y="493.75" name="top_1"/>
  <anchor x="367.25" y="0.0" name="caret_1"/>
  <anchor x="676.25" y="0.0" name="caret_2"/>
  <outline>
    <contour>
      <point x="116.0" y="0.0" type="line"/>
      <point x="209.75" y="0.0" type="line"/>
      <point x="209.75" y="521.25" type="line" smooth="yes"/>
      <point x="209.75" y="581.5"/>
      <point x="246.0" y="626.75"/>
      <point x="318.0" y="626.75" type="curve" smooth="yes"/>
      <point x="385.5" y="626.75"/>
      <point x="424.25" y="582.0"/>
      <point x="424.25" y="523.0" type="curve" smooth="yes"/>
      <point x="424.25" y="0.0" type="line"/>
      <point x="518.0" y="0.0" type="line"/>
      <point x="518.0" y="521.25" type="line" smooth="yes"/>
      <point x="518.0" y="581.5"/>
      <point x="554.25" y="626.75"/>
      <point x="626.25" y="626.75" type="curve" smooth="yes"/>
      <point x="693.75" y="626.75"/>
      <point x="731.25" y="581.75"/>
      <point x="731.25" y="522.5" type="curve"/>
      <point x="719.25" y="545.5" type="line"/>
      <point x="829.0" y="545.5" type="line"/>
      <point x="824.75" y="525.5" type="line"/>
      <point x="824.75" y="630.0"/>
      <point x="750.25" y="713.0"/>
      <point x="626.25" y="713.0" type="curve" smooth="yes"/>
      <point x="549.25" y="713.0"/>
      <point x="492.0" y="678.0"/>
      <point x="464.0" y="612.5" type="curve"/>
      <point x="518.0" y="630.75" type="line"/>
      <point x="423.5" y="630.75" type="line"/>
      <point x="477.5" y="611.5" type="line"/>
      <point x="448.75" y="678.75"/>
      <point x="391.75" y="713.0"/>
      <point x="318.0" y="713.0" type="curve" smooth="yes"/>
      <point x="196.25" y="713.0"/>
      <point x="116.0" y="630.0"/>
      <point x="116.0" y="526.0" type="curve" smooth="yes"/>
    </contour>
    <contour>
      <point x="17.75" y="409.75" type="line"/>
      <point x="665.0" y="409.75" type="line"/>
      <point x="665.0" y="493.75" type="line"/>
      <point x="17.75" y="493.75" type="line"/>
    </contour>
    <component base="idotless" xOffset="661.0"/>
  </outline>
</glyph>
<glyph name="f_f_l.ss11" format="2">
  <advance width="907.5"/>
  <anchor x="374.5" y="0.0" name="caret_1"/>
  <anchor x="682.5" y="0.0" name="caret_2"/>
  <outline>
    <contour>
      <point x="116.0" y="0.0" type="line"/>
      <point x="209.75" y="0.0" type="line"/>
      <point x="209.75" y="520.0" type="line" smooth="yes"/>
      <point x="209.75" y="580.0"/>
      <point x="246.0" y="626.75"/>
      <point x="320.5" y="626.75" type="curve" smooth="yes"/>
      <point x="390.5" y="626.75"/>
      <point x="429.25" y="580.75"/>
      <point x="429.25" y="522.0" type="curve" smooth="yes"/>
      <point x="429.25" y="0.0" type="line"/>
      <point x="523.0" y="0.0" type="line"/>
      <point x="523.0" y="520.0" type="line" smooth="yes"/>
      <point x="523.0" y="580.0"/>
      <point x="559.25" y="626.75"/>
      <point x="633.75" y="626.75" type="curve" smooth="yes"/>
      <point x="703.75" y="626.75"/>
      <point x="742.5" y="580.75"/>
      <point x="742.5" y="522.0" type="curve" smooth="yes"/>
      <point x="742.5" y="0.0" type="line"/>
      <point x="836.25" y="0.0" type="line"/>
      <point x="836.25" y="519.0" type="line" smooth="yes"/>
      <point x="836.25" y="627.0"/>
      <point x="753.5" y="713.0"/>
      <point x="633.75" y="713.0" type="curve" smooth="yes"/>
      <point x="558.25" y="713.0"/>
      <point x="485.0" y="670.25"/>
      <point x="469.0" y="602.5" type="curve"/>
      <point x="523.0" y="630.5" type="line"/>
      <point x="428.5" y="630.5" type="line"/>
      <point x="482.5" y="601.5" type="line"/>
      <point x="465.75" y="671.25"/>
      <point x="392.75" y="713.0"/>
      <point x="320.5" y="713.0" type="curve" smooth="yes"/>
      <point x="196.25" y="713.0"/>
      <point x="116.0" y="627.0"/>
      <point x="116.0" y="522.0" type="curve" smooth="yes"/>
    </contour>
    <contour>
      <point x="17.75" y="409.75" type="line"/>
      <point x="675.0" y="409.75" type="line"/>
      <point x="675.0" y="493.75" type="line"/>
      <point x="17.75" y="493.75" type="line"/>
    </contour>
  </outline>
</glyph>
<glyph name="f_l.ss11" format="2">
  <advance width="617.75"/>
  <anchor x="374.75" y="0.0" name="caret_1"/>
  <outline>
    <contour>
      <point x="116.0" y="0.0" type="line"/>
      <point x="209.75" y="0.0" type="line"/>
      <point x="209.75" y="511.25" type="line" smooth="yes"/>
      <point x="209.75" y="587.0"/>
      <point x="255.0" y="626.5"/>
      <point x="331.75" y="626.5" type="curve" smooth="yes"/>
      <point x="404.5" y="626.5"/>
      <point x="452.75" y="587.5"/>
      <point x="452.75" y="513.0" type="curve" smooth="yes"/>
      <point x="452.75" y="0.0" type="line"/>
      <point x="546.5" y="0.0" type="line"/>
      <point x="546.5" y="518.5" type="line" smooth="yes"/>
      <point x="546.5" y="634.0"/>
      <point x="452.75" y="713.0"/>
      <point x="331.75" y="713.0" type="curve" smooth="yes"/>
      <point x="206.75" y="713.0"/>
      <point x="116.0" y="634.0"/>
      <point x="116.0" y="518.5" type="curve" smooth="yes"/>
    </contour>
    <contour>
      <point x="17.75" y="409.75" type="line"/>
      <point x="375.5" y="409.75" type="line"/>
      <point x="375.5" y="493.75" type="line"/>
      <point x="17.75" y="493.75" type="line"/>
    </contour>
  </outline>
</glyph>
<glyph name="hookabovecombviet.case" format="2">
  <advance width="300.0"/>
  <anchor x="0.0" y="700.0" name="_top"/>
  <anchor x="0.0" y="861.75" name="top"/>
  <outline>
    <contour>
      <point x="0.0" y="716.5" type="line"/>
      <point x="32.0" y="736.5"/>
      <point x="53.75" y="761.75"/>
      <point x="53.75" y="794.25" type="curve" smooth="yes"/>
      <point x="53.75" y="837.75"/>
      <point x="17.25" y="882.25"/>
      <point x="-50.5" y="882.25" type="curve" smooth="yes"/>
      <point x="-80.75" y="882.25"/>
      <point x="-105.25" y="874.5"/>
      <point x="-127.75" y="860.25" type="curve"/>
      <point x="-98.0" y="804.25" type="line"/>
      <point x="-85.25" y="812.5"/>
      <point x="-67.5" y="817.75"/>
      <point x="-51.0" y="817.75" type="curve" smooth="yes"/>
      <point x="-28.75" y="817.75"/>
      <point x="-11.25" y="804.5"/>
      <point x="-11.25" y="786.75" type="curve" smooth="yes"/>
      <point x="-11.25" y="773.0"/>
      <point x="-20.75" y="762.25"/>
      <point x="-36.75" y="755.0" type="curve"/>
    </contour>
  </outline>
</glyph>
<glyph name="one.numr" format="2">
  <advance width="179.5"/>
  <outline>
    <contour>
      <point x="69.25" y="315.0" type="line"/>
      <point x="129.5" y="315.0" type="line"/>
      <point x="129.5" y="706.25" type="line"/>
      <point x="-0.25" y="653.0" type="line"/>
      <point x="21.75" y="596.75" type="line"/>
      <point x="68.25" y="616.25" type="line"/>
      <point x="69.25" y="615.25" type="line"/>
    </contour>
  </outline>
</glyph>
<glyph name="one.tf" format="2">
  <advance width="596.0"/>
  <outline>
    <contour>
      <point x="271.75" y="0.0" type="line"/>
      <point x="369.75" y="0.0" type="line"/>
      <point x="369.75" y="713.0" type="line"/>
      <point x="67.25" y="590.5" type="line"/>
      <point x="100.25" y="507.25" type="line"/>
      <point x="269.25" y="577.0" type="line"/>
      <point x="271.75" y="573.5" type="line"/>
    </contour>
    <contour>
      <point x="121.25" y="-0.25" type="line"/>
      <point x="523.5" y="-0.25" type="line"/>
      <point x="523.5" y="85.25" type="line"/>
      <point x="121.25" y="85.25" type="line"/>
    </contour>
  </outline>
</glyph>
<glyph name="ordfeminine.ss01" format="2">
  <advance width="474.0"/>
  <outline>
    <contour>
      <point x="69.25" y="190.0" type="line"/>
      <point x="390.25" y="190.0" type="line"/>
      <point x="390.25" y="256.0" type="line"/>
      <point x="69.25" y="256.0" type="line"/>
    </contour>
    <contour>
      <point x="187.25" y="310.25" type="curve" smooth="yes"/>
      <point x="261.75" y="310.25"/>
      <point x="294.5" y="347.5"/>
      <point x="313.75" y="375.75" type="curve"/>
      <point x="318.75" y="375.75" type="line"/>
      <point x="318.75" y="320.0" type="line"/>
      <point x="390.25" y="320.0" type="line"/>
      <point x="390.25" y="570.0" type="line" smooth="yes"/>
      <point x="390.25" y="659.5"/>
      <point x="310.75" y="713.0"/>
      <point x="228.0" y="713.0" type="curve" smooth="yes"/>
      <point x="150.25" y="713.0"/>
      <point x="100.5" y="689.25"/>
      <point x="57.25" y="642.25" type="curve"/>
      <point x="105.5" y="593.25" type="line"/>
      <point x="135.75" y="628.0"/>
      <point x="172.0" y="646.25"/>
      <point x="221.75" y="646.25" type="curve" smooth="yes"/>
      <point x="268.75" y="646.25"/>
      <point x="315.0" y="620.25"/>
      <point x="315.0" y="572.75" type="curve" smooth="yes"/>
      <point x="315.0" y="539.75" type="line"/>
      <point x="329.25" y="552.75" type="line"/>
      <point x="240.75" y="547.5" type="line" smooth="yes"/>
      <point x="119.0" y="540.25"/>
      <point x="53.5" y="499.0"/>
      <point x="53.5" y="423.0" type="curve" smooth="yes"/>
      <point x="53.5" y="359.0"/>
      <point x="111.75" y="310.25"/>
    </contour>
    <contour>
      <point x="203.5" y="373.5" type="curve" smooth="yes"/>
      <point x="156.25" y="373.5"/>
      <point x="127.75" y="392.0"/>
      <point x="127.75" y="428.0" type="curve" smooth="yes"/>
      <point x="127.75" y="469.0"/>
      <point x="172.5" y="485.0"/>
      <point x="247.0" y="490.25" type="curve" smooth="yes"/>
      <point x="327.75" y="496.0" type="line"/>
      <point x="315.0" y="510.5" type="line"/>
      <point x="315.0" y="479.0" type="line" smooth="yes"/>
      <point x="315.0" y="421.5"/>
      <point x="270.0" y="373.5"/>
    </contour>
  </outline>
</glyph>
<glyph name="tittle" format="2">
  <advance width="236.25"/>
  <outline>
    <contour>
      <point x="118.5" y="600.5" type="curve" smooth="yes"/>
      <point x="152.75" y="600.5"/>
      <point x="177.75" y="626.5"/>
      <point x="177.75" y="659.5" type="curve" smooth="yes"/>
      <point x="177.75" y="691.25"/>
      <point x="152.75" y="717.5"/>
      <point x="118.5" y="717.5" type="curve" smooth="yes"/>
      <point x="83.75" y="717.5"/>
      <point x="58.5" y="691.25"/>
      <point x="58.5" y="659.5" type="curve" smooth="yes"/>
      <point x="58.5" y="626.75"/>
      <point x="83.75" y="600.5"/>
    </contour>
  </outline>
</glyph>
<glyph name="two.numr" format="2">
  <advance width="330.5"/>
  <outline>
    <contour>
      <point x="27.5" y="313.5" type="line"/>
      <point x="289.0" y="313.5" type="line"/>
      <point x="289.0" y="368.75" type="line"/>
      <point x="139.25" y="368.0" type="line"/>
      <point x="139.25" y="369.0" type="line"/>
      <point x="143.5" y="371.25"/>
      <point x="153.75" y="380.75"/>
      <point x="158.75" y="387.0" type="curve" smooth="yes"/>
      <point x="239.5" y="482.0" type="line" smooth="yes"/>
      <point x="266.0" y="513.5"/>
      <point x="285.25" y="547.25"/>
      <point x="285.25" y="588.5" type="curve" smooth="yes"/>
      <point x="285.25" y="641.5"/>
      <point x="242.75" y="706.5"/>
      <point x="157.5" y="706.5" type="curve" smooth="yes"/>
      <point x="94.5" y="706.5"/>
      <point x="27.5" y="667.75"/>
      <point x="27.5" y="568.25" type="curve"/>
      <point x="89.75" y="568.25" type="line"/>
      <point x="89.75" y="629.5"/>
      <point x="121.0" y="650.25"/>
      <point x="156.75" y="650.25" type="curve" smooth="yes"/>
      <point x="200.0" y="650.25"/>
      <point x="222.0" y="619.0"/>
      <point x="222.0" y="584.5" type="curve" smooth="yes"/>
      <point x="222.0" y="552.75"/>
      <point x="200.25" y="525.0"/>
      <point x="179.75" y="499.75" type="curve" smooth="yes"/>
      <point x="27.5" y="328.25" type="line"/>
    </contour>
  </outline>
</glyph>
<glyph name="u.ss10" format="2">
  <advance width="555.75"/>
  <anchor x="278.75" y="0.0" name="bottom"/>
  <anchor x="277.5" y="0.0" name="ogonek"/>
  <anchor x="280.0" y="493.75" name="top"/>
  <anchor x="488.5" y="493.75" name="topright"/>
  <outline>
    <contour>
      <point x="278.75" y="-12.0" type="curve" smooth="yes"/>
      <point x="410.75" y="-12.0"/>
      <point x="489.25" y="66.5"/>
      <point x="489.25" y="204.25" type="curve" smooth="yes"/>
      <point x="489.25" y="493.75" type="line"/>
      <point x="396.25" y="493.75" type="line"/>
      <point x="396.25" y="212.5" type="line" smooth="yes"/>
      <point x="396.25" y="118.75"/>
      <point x="357.25" y="72.25"/>
      <point x="279.25" y="72.25" type="curve" smooth="yes"/>
      <point x="202.0" y="72.25"/>
      <point x="160.25" y="118.75"/>
      <point x="160.25" y="212.5" type="curve" smooth="yes"/>
      <point x="160.25" y="493.75" type="line"/>
      <point x="66.5" y="493.75" type="line"/>
      <point x="66.5" y="204.25" type="line" smooth="yes"/>
      <point x="66.5" y="66.5"/>
      <point x="147.25" y="-12.0"/>
    </contour>
  </outline>
</glyph>
